<svg xmlns="http://www.w3.org/2000/svg" width="64" height="64" viewBox="0 0 64 64"><rect width="64" height="64" rx="32" fill="#e7d4c4"/><path d="M17 35C14 8 49 6 48 35L51 52H14Z" fill="#4a3026"/><path d="M9 64V57Q12 44 32 44Q52 44 55 57V64" fill="#8c5d4c"/><path d="M27 39H37V48Q32 53 27 48Z" fill="#e4ac88"/><ellipse cx="32" cy="30" rx="12" ry="15" fill="#e4ac88"/><path d="M20 28Q18 13 32 13Q47 15 44 29L35 20Q27 28 20 28Z" fill="#4a3026"/><g fill="#30251f"><circle cx="27" cy="30" r="1"/><circle cx="37" cy="30" r="1"/></g><path d="M28 37Q32 40 36 37" fill="none" stroke="#704332" stroke-width="1.5" stroke-linecap="round"/></svg>